<svg width="68" height="68" viewBox="0 0 68 68" fill="none" xmlns="http://www.w3.org/2000/svg">
  <!-- Outer background circle -->
  <rect width="68" height="68" rx="34" fill="#CE0E0E" fill-opacity="0.15"/>
  <rect width="68" height="68" rx="34" fill="white" fill-opacity="0.5"/>
  
  <!-- Dustbin Icon -->
  <g fill="#CE0E0E">
    <!-- Trash can base -->
    <path d="M23 26C23 25.4477 23.4477 25 24 25H44C44.5523 25 45 25.4477 45 26V44C45 45.6569 43.6569 47 42 47H26C24.3431 47 23 45.6569 23 44V26ZM25 27V44C25 44.5523 25.4477 45 26 45H42C42.5523 45 43 44.5523 43 44V27H25Z"/>
    
    <!-- Trash can lid -->
    <path d="M29 22C29 21.4477 29.4477 21 30 21H38C38.5523 21 39 21.4477 39 22V23H29V22ZM34 19C34.5523 19 35 19.4477 35 20H33C33 19.4477 33.4477 19 34 19Z"/>
    
    <!-- Vertical lines on the dustbin -->
    <path d="M32 30C32.5523 30 33 30.4477 33 31V41C33 41.5523 32.5523 42 32 42C31.4477 42 31 41.5523 31 41V31C31 30.4477 31.4477 30 32 30Z"/>
    <path d="M36 30C36.5523 30 37 30.4477 37 31V41C37 41.5523 36.5523 42 36 42C35.4477 42 35 41.5523 35 41V31C35 30.4477 35.4477 30 36 30Z"/>
    <path d="M40 30C40.5523 30 41 30.4477 41 31V41C41 41.5523 40.5523 42 40 42C39.4477 42 39 41.5523 39 41V31C39 30.4477 39.4477 30 40 30Z"/>
  </g>
</svg>
