<svg width="68" height="68" viewBox="0 0 68 68" fill="none" xmlns="http://www.w3.org/2000/svg">
<rect width="68" height="68" rx="34" fill="#CE0E0E" fill-opacity="0.15"/>
<rect width="68" height="68" rx="34" fill="white" fill-opacity="0.5"/>
<path fill-rule="evenodd" clip-rule="evenodd" d="M36.2688 48.2312C37.0377 49 38.2751 49 40.75 49C43.2249 49 44.4623 49 45.2312 48.2312C46 47.4623 46 46.2249 46 43.75C46 41.2751 46 40.0377 45.2312 39.2688C44.4623 38.5 43.2249 38.5 40.75 38.5C38.2751 38.5 37.0377 38.5 36.2688 39.2688C35.5 40.0377 35.5 41.2751 35.5 43.75C35.5 46.2249 35.5 47.4623 36.2688 48.2312ZM39.875 42.875H38.4167C37.9334 42.875 37.5417 43.2668 37.5417 43.75C37.5417 44.2332 37.9334 44.625 38.4167 44.625H39.875H41.625H43.0833C43.5666 44.625 43.9583 44.2332 43.9583 43.75C43.9583 43.2668 43.5666 42.875 43.0833 42.875H41.625H39.875Z" fill="#CE0E0E"/>
<path d="M39.5173 36.2542C38.8077 36.2628 38.1463 36.2887 37.5699 36.3661C36.6056 36.4958 35.55 36.8057 34.6779 37.6778C33.8057 38.55 33.4958 39.6055 33.3662 40.5698C33.2497 41.4364 33.2498 42.4952 33.25 43.621V43.8789C33.2498 45.0048 33.2497 46.0635 33.3662 46.9301C33.4572 47.6068 33.6369 48.3284 34.0374 49C34.0249 49 34.0125 49 34 49C22 49 22 45.9779 22 42.25C22 38.5221 27.3726 35.5 34 35.5C35.9893 35.5 37.8655 35.7723 39.5173 36.2542Z" fill="#CE0E0E"/>
<circle cx="34" cy="25" r="6" fill="#CE0E0E"/>
</svg>
