<svg width="68" height="68" viewBox="0 0 68 68" fill="none" xmlns="http://www.w3.org/2000/svg">
  <rect width="68" height="68" rx="34" fill="#53B175" fill-opacity="1"/>
  <rect width="68" height="68" rx="34" fill="white" fill-opacity="0.5"/>
  <path fill-rule="evenodd" clip-rule="evenodd" d="M21.25 30.3514V37.6486C21.25 41.0886 21.25 42.8086 22.3324 43.8773C23.3158 44.8482 24.8437 44.937 27.7277 44.9451C27.5753 43.9336 27.5435 42.7252 27.5354 41.3034C27.532 40.6989 28.0256 40.2061 28.6379 40.2027C29.2502 40.1994 29.7494 40.6867 29.7528 41.2912C29.7618 42.8871 29.8037 44.0183 29.9635 44.8768C30.1174 45.7041 30.3645 46.1829 30.7244 46.5382C31.1335 46.9421 31.7079 47.2055 32.7926 47.3495C33.9092 47.4977 35.3891 47.5 37.511 47.5H38.9892C41.1111 47.5 42.591 47.4977 43.7076 47.3495C44.7923 47.2055 45.3667 46.9421 45.7758 46.5382C46.1849 46.1343 46.4517 45.5672 46.5975 44.4963C46.7476 43.3939 46.75 41.9328 46.75 39.8378V28.1622C46.75 26.0672 46.7476 24.6061 46.5975 23.5037C46.4517 22.4328 46.1849 21.8657 45.7758 21.4618C45.3667 21.0579 44.7923 20.7945 43.7076 20.6505C42.591 20.5023 41.1111 20.5 38.9892 20.5H37.511C35.3891 20.5 33.9092 20.5023 32.7926 20.6505C31.7079 20.7945 31.1335 21.0579 30.7244 21.4618C30.3645 21.8171 30.1174 22.2959 29.9635 23.1232C29.8037 23.9817 29.7618 25.1129 29.7528 26.7088C29.7494 27.3133 29.2502 27.8006 28.6379 27.7973C28.0256 27.7939 27.532 27.3011 27.5354 26.6966C27.5435 25.2748 27.5753 24.0664 27.7277 23.0549C24.8437 23.063 23.3158 23.1518 22.3324 24.1227C21.25 25.1914 21.25 26.9114 21.25 30.3514ZM24.9008 34.774C24.4678 34.3465 24.4678 33.6535 24.9008 33.226L27.8573 30.3071C28.2902 29.8796 28.9922 29.8796 29.4252 30.3071C29.8581 30.7346 29.8581 31.4276 29.4252 31.8551L28.3613 32.9054L38.9889 32.9054C39.6012 32.9054 40.0976 33.3955 40.0976 34C40.0976 34.6045 39.6012 35.0946 38.9889 35.0946L28.3613 35.0946L29.4252 36.1449C29.8581 36.5724 29.8581 37.2654 29.4252 37.6929C28.9922 38.1204 28.2902 38.1204 27.8573 37.6929L24.9008 34.774Z" fill="#53B175"/>
</svg>
