<svg width="182" height="14" viewBox="0 0 182 14" fill="none" xmlns="http://www.w3.org/2000/svg">
<path d="M6.40866 9.42281C5.68999 10.1321 4.81733 10.4868 3.79066 10.4868C2.76399 10.4868 1.89133 10.1321 1.17266 9.42281C0.463327 8.71348 0.10866 7.84081 0.10866 6.80481C0.10866 5.76881 0.463327 4.89614 1.17266 4.18681C1.89133 3.47748 2.76399 3.12281 3.79066 3.12281C4.81733 3.12281 5.68999 3.47748 6.40866 4.18681C7.12733 4.89614 7.48666 5.76881 7.48666 6.80481C7.48666 7.84081 7.12733 8.71348 6.40866 9.42281ZM3.79066 9.29681C4.49066 9.29681 5.07866 9.05881 5.55466 8.58281C6.03066 8.10681 6.26866 7.51414 6.26866 6.80481C6.26866 6.09548 6.03066 5.50281 5.55466 5.02681C5.07866 4.55081 4.49066 4.31281 3.79066 4.31281C3.09999 4.31281 2.51666 4.55081 2.04066 5.02681C1.56466 5.50281 1.32666 6.09548 1.32666 6.80481C1.32666 7.51414 1.56466 8.10681 2.04066 8.58281C2.51666 9.05881 3.09999 9.29681 3.79066 9.29681ZM17.9085 3.12281C18.7299 3.12281 19.3879 3.38414 19.8825 3.90681C20.3772 4.42014 20.6245 5.12014 20.6245 6.00681V10.3048H19.4065V6.07681C19.4065 5.50748 19.2525 5.06881 18.9445 4.76081C18.6365 4.44348 18.2119 4.28481 17.6705 4.28481C17.0639 4.28481 16.5739 4.47614 16.2005 4.85881C15.8272 5.23214 15.6405 5.81081 15.6405 6.59481V10.3048H14.4225V3.30481H15.6405V4.31281C16.1352 3.51948 16.8912 3.12281 17.9085 3.12281ZM27.8249 10.3048V0.0848093H29.0429V10.3048H27.8249ZM37.0171 2.03081C36.7837 2.03081 36.5877 1.95148 36.4291 1.79281C36.2704 1.63414 36.1911 1.44281 36.1911 1.21881C36.1911 0.994809 36.2704 0.803476 36.4291 0.644809C36.5877 0.476809 36.7837 0.39281 37.0171 0.39281C37.2411 0.39281 37.4324 0.476809 37.5911 0.644809C37.7497 0.803476 37.8291 0.994809 37.8291 1.21881C37.8291 1.44281 37.7497 1.63414 37.5911 1.79281C37.4324 1.95148 37.2411 2.03081 37.0171 2.03081ZM36.4011 10.3048V3.30481H37.6191V10.3048H36.4011ZM48.4632 3.12281C49.2846 3.12281 49.9426 3.38414 50.4372 3.90681C50.9319 4.42014 51.1792 5.12014 51.1792 6.00681V10.3048H49.9612V6.07681C49.9612 5.50748 49.8072 5.06881 49.4992 4.76081C49.1912 4.44348 48.7666 4.28481 48.2252 4.28481C47.6186 4.28481 47.1286 4.47614 46.7552 4.85881C46.3819 5.23214 46.1952 5.81081 46.1952 6.59481V10.3048H44.9772V3.30481H46.1952V4.31281C46.6899 3.51948 47.4459 3.12281 48.4632 3.12281ZM59.2336 7.36481C59.3549 7.99014 59.6396 8.47548 60.0876 8.82081C60.5449 9.16614 61.1049 9.33881 61.7676 9.33881C62.6916 9.33881 63.3636 8.99814 63.7836 8.31681L64.8196 8.90481C64.1382 9.95948 63.1116 10.4868 61.7396 10.4868C60.6289 10.4868 59.7236 10.1415 59.0236 9.45081C58.3329 8.75081 57.9876 7.86881 57.9876 6.80481C57.9876 5.75014 58.3282 4.87281 59.0096 4.17281C59.6909 3.47281 60.5729 3.12281 61.6556 3.12281C62.6822 3.12281 63.5176 3.48681 64.1616 4.21481C64.8149 4.93348 65.1416 5.80148 65.1416 6.81881C65.1416 6.99614 65.1276 7.17814 65.0996 7.36481H59.2336ZM61.6556 4.27081C61.0022 4.27081 60.4609 4.45748 60.0316 4.83081C59.6022 5.19481 59.3362 5.68481 59.2336 6.30081H63.9096C63.8069 5.63814 63.5456 5.13414 63.1256 4.78881C62.7056 4.44348 62.2156 4.27081 61.6556 4.27081ZM86.8517 3.30481H88.0557V10.0108C88.0557 11.0468 87.7057 11.8495 87.0057 12.4188C86.3057 12.9975 85.4657 13.2868 84.4857 13.2868C83.7017 13.2868 83.025 13.1375 82.4557 12.8388C81.8863 12.5495 81.457 12.1295 81.1677 11.5788L82.2317 10.9768C82.6143 11.7608 83.375 12.1528 84.5137 12.1528C85.2417 12.1528 85.811 11.9615 86.2217 11.5788C86.6417 11.1961 86.8517 10.6735 86.8517 10.0108V9.01681C86.2357 9.95014 85.3583 10.4168 84.2197 10.4168C83.221 10.4168 82.3763 10.0621 81.6857 9.35281C80.995 8.64348 80.6497 7.78014 80.6497 6.76281C80.6497 5.74548 80.995 4.88681 81.6857 4.18681C82.3763 3.47748 83.221 3.12281 84.2197 3.12281C85.3677 3.12281 86.245 3.58481 86.8517 4.50881V3.30481ZM82.5817 8.54081C83.0577 9.01681 83.6503 9.25481 84.3597 9.25481C85.069 9.25481 85.6617 9.01681 86.1377 8.54081C86.6137 8.06481 86.8517 7.47214 86.8517 6.76281C86.8517 6.06281 86.6137 5.47481 86.1377 4.99881C85.6617 4.52281 85.069 4.28481 84.3597 4.28481C83.6503 4.28481 83.0577 4.52281 82.5817 4.99881C82.1057 5.47481 81.8677 6.06281 81.8677 6.76281C81.8677 7.47214 82.1057 8.06481 82.5817 8.54081ZM96.6191 4.48081C97.0204 3.61281 97.7484 3.17881 98.8031 3.17881V4.45281C98.2057 4.42481 97.6924 4.58348 97.2631 4.92881C96.8337 5.27414 96.6191 5.82948 96.6191 6.59481V10.3048H95.4011V3.30481H96.6191V4.48081ZM111.02 9.42281C110.301 10.1321 109.429 10.4868 108.402 10.4868C107.375 10.4868 106.503 10.1321 105.784 9.42281C105.075 8.71348 104.72 7.84081 104.72 6.80481C104.72 5.76881 105.075 4.89614 105.784 4.18681C106.503 3.47748 107.375 3.12281 108.402 3.12281C109.429 3.12281 110.301 3.47748 111.02 4.18681C111.739 4.89614 112.098 5.76881 112.098 6.80481C112.098 7.84081 111.739 8.71348 111.02 9.42281ZM108.402 9.29681C109.102 9.29681 109.69 9.05881 110.166 8.58281C110.642 8.10681 110.88 7.51414 110.88 6.80481C110.88 6.09548 110.642 5.50281 110.166 5.02681C109.69 4.55081 109.102 4.31281 108.402 4.31281C107.711 4.31281 107.128 4.55081 106.652 5.02681C106.176 5.50281 105.938 6.09548 105.938 6.80481C105.938 7.51414 106.176 8.10681 106.652 8.58281C107.128 9.05881 107.711 9.29681 108.402 9.29681ZM122.324 10.4868C121.269 10.4868 120.392 10.1368 119.692 9.43681C118.992 8.72748 118.642 7.85014 118.642 6.80481C118.642 5.75948 118.992 4.88681 119.692 4.18681C120.392 3.47748 121.269 3.12281 122.324 3.12281C123.015 3.12281 123.635 3.29081 124.186 3.62681C124.737 3.95348 125.147 4.39681 125.418 4.95681L124.396 5.54481C124.219 5.17148 123.943 4.87281 123.57 4.64881C123.206 4.42481 122.791 4.31281 122.324 4.31281C121.624 4.31281 121.036 4.55081 120.56 5.02681C120.093 5.50281 119.86 6.09548 119.86 6.80481C119.86 7.50481 120.093 8.09281 120.56 8.56881C121.036 9.04481 121.624 9.28281 122.324 9.28281C122.791 9.28281 123.211 9.17548 123.584 8.96081C123.957 8.73681 124.242 8.43814 124.438 8.06481L125.474 8.66681C125.175 9.21748 124.746 9.66081 124.186 9.99681C123.626 10.3235 123.005 10.4868 122.324 10.4868ZM132.935 7.36481C133.056 7.99014 133.341 8.47548 133.789 8.82081C134.246 9.16614 134.806 9.33881 135.469 9.33881C136.393 9.33881 137.065 8.99814 137.485 8.31681L138.521 8.90481C137.839 9.95948 136.813 10.4868 135.441 10.4868C134.33 10.4868 133.425 10.1415 132.725 9.45081C132.034 8.75081 131.689 7.86881 131.689 6.80481C131.689 5.75014 132.029 4.87281 132.711 4.17281C133.392 3.47281 134.274 3.12281 135.357 3.12281C136.383 3.12281 137.219 3.48681 137.863 4.21481C138.516 4.93348 138.843 5.80148 138.843 6.81881C138.843 6.99614 138.829 7.17814 138.801 7.36481H132.935ZM135.357 4.27081C134.703 4.27081 134.162 4.45748 133.733 4.83081C133.303 5.19481 133.037 5.68481 132.935 6.30081H137.611C137.508 5.63814 137.247 5.13414 136.827 4.78881C136.407 4.44348 135.917 4.27081 135.357 4.27081ZM146.961 4.48081C147.362 3.61281 148.09 3.17881 149.145 3.17881V4.45281C148.548 4.42481 148.034 4.58348 147.605 4.92881C147.176 5.27414 146.961 5.82948 146.961 6.59481V10.3048H145.743V3.30481H146.961V4.48081ZM156.453 2.03081C156.219 2.03081 156.023 1.95148 155.865 1.79281C155.706 1.63414 155.627 1.44281 155.627 1.21881C155.627 0.994809 155.706 0.803476 155.865 0.644809C156.023 0.476809 156.219 0.39281 156.453 0.39281C156.677 0.39281 156.868 0.476809 157.027 0.644809C157.185 0.803476 157.265 0.994809 157.265 1.21881C157.265 1.44281 157.185 1.63414 157.027 1.79281C156.868 1.95148 156.677 2.03081 156.453 2.03081ZM155.837 10.3048V3.30481H157.055V10.3048H155.837ZM165.267 7.36481C165.388 7.99014 165.673 8.47548 166.121 8.82081C166.578 9.16614 167.138 9.33881 167.801 9.33881C168.725 9.33881 169.397 8.99814 169.817 8.31681L170.853 8.90481C170.171 9.95948 169.145 10.4868 167.773 10.4868C166.662 10.4868 165.757 10.1415 165.057 9.45081C164.366 8.75081 164.021 7.86881 164.021 6.80481C164.021 5.75014 164.361 4.87281 165.043 4.17281C165.724 3.47281 166.606 3.12281 167.689 3.12281C168.715 3.12281 169.551 3.48681 170.195 4.21481C170.848 4.93348 171.175 5.80148 171.175 6.81881C171.175 6.99614 171.161 7.17814 171.133 7.36481H165.267ZM167.689 4.27081C167.035 4.27081 166.494 4.45748 166.065 4.83081C165.635 5.19481 165.369 5.68481 165.267 6.30081H169.943C169.84 5.63814 169.579 5.13414 169.159 4.78881C168.739 4.44348 168.249 4.27081 167.689 4.27081ZM181.678 4.48081H179.816V8.27481C179.816 8.62014 179.881 8.86748 180.012 9.01681C180.152 9.15681 180.362 9.23148 180.642 9.24081C180.922 9.24081 181.267 9.23148 181.678 9.21281V10.3048C180.614 10.4448 179.834 10.3608 179.34 10.0528C178.845 9.73548 178.598 9.14281 178.598 8.27481V4.48081H177.212V3.30481H178.598V1.70881L179.816 1.34481V3.30481H181.678V4.48081Z" fill="white"/>
</svg>
