<svg width="11" height="18" viewBox="0 0 11 18" fill="none" xmlns="http://www.w3.org/2000/svg">
<path d="M10.3191 15.7263C10.5538 15.9835 10.6842 16.3218 10.6711 16.6737C10.6711 17.0256 10.5407 17.3504 10.293 17.6075C10.0583 17.8511 9.73239 18 9.39341 18C9.05443 18 8.72848 17.8782 8.48076 17.6346L1.10136 9.97444C0.984023 9.85263 0.892758 9.70376 0.827569 9.54135C0.76238 9.37895 0.723267 9.20301 0.723267 9.02707C0.723267 8.85113 0.76238 8.67519 0.827569 8.49925C0.892758 8.33684 0.984023 8.18797 1.10136 8.06616L8.48076 0.406015C8.5981 0.284211 8.74152 0.17594 8.89797 0.108271C9.06746 0.0406015 9.23696 0 9.40645 0C9.57594 0 9.75847 0.0270677 9.91492 0.0947368C10.0714 0.162406 10.2148 0.270677 10.3452 0.392481C10.4625 0.514286 10.5538 0.676692 10.619 0.839098C10.6972 1.0015 10.7233 1.17744 10.7233 1.36692C10.7233 1.54286 10.6842 1.7188 10.619 1.8812C10.5538 2.04361 10.4495 2.19248 10.3191 2.32782L3.86538 9.02707L5.09093 10.2857L10.3191 15.7263Z" fill="#181725"/>
</svg>
