<svg width="48" height="48" viewBox="0 0 48 48" fill="none" xmlns="http://www.w3.org/2000/svg">
<path d="M30.3671 27.3955C30.3671 30.9141 27.5187 33.7626 24 33.7626C20.4813 33.7626 17.6329 30.9141 17.6329 27.3955C17.6329 23.8768 20.4813 21.0283 24 21.0283C27.5187 21.0283 30.3671 23.8768 30.3671 27.3955ZM43.3971 11.4382C45.94 11.4382 48 13.4981 48 16.041V28.1051V38.3359C48 41.0464 45.8021 43.2443 43.0916 43.2443H4.90842C2.19795 43.2443 0 41.0464 0 38.3359V28.0952V16.041C0 13.4981 2.05996 11.4382 4.60287 11.4382H13.8086L14.2423 9.6049C14.9027 6.76629 17.4357 4.75562 20.3532 4.75562H27.6567C30.5741 4.75562 33.1072 6.76629 33.7676 9.6049L34.1914 11.4382H43.3971ZM9.6 18.0813C9.6 16.8098 8.56509 15.7749 7.29363 15.7749C6.01232 15.7749 4.97741 16.8098 4.97741 18.0813C4.97741 19.3527 6.01232 20.3876 7.28378 20.3876C8.56509 20.3975 9.6 19.3626 9.6 18.0813ZM35.3544 27.3955C35.3544 21.1269 30.2686 16.041 24 16.041C17.7314 16.041 12.6456 21.1269 12.6456 27.3955C12.6456 33.664 17.7314 38.7499 24 38.7499C30.2686 38.7499 35.3544 33.664 35.3544 27.3955Z" fill="#53B175"/>
</svg>
