<svg width="23" height="21" viewBox="0 0 23 21" fill="none" xmlns="http://www.w3.org/2000/svg">
<path d="M8.68248 20.3518C8.03393 20.3518 7.41194 20.0942 6.95334 19.6356C6.49475 19.177 6.23711 18.555 6.23711 17.9064C6.23711 17.2579 6.49475 16.6359 6.95334 16.1773C7.41194 15.7187 8.03393 15.4611 8.68248 15.4611C9.33103 15.4611 9.95301 15.7187 10.4116 16.1773C10.8702 16.6359 11.1278 17.2579 11.1278 17.9064C11.1278 18.555 10.8702 19.177 10.4116 19.6356C9.95301 20.0942 9.33103 20.3518 8.68248 20.3518ZM17.2412 20.3518C16.5927 20.3518 15.9707 20.0942 15.5121 19.6356C15.0535 19.177 14.7959 18.555 14.7959 17.9064C14.7959 17.2579 15.0535 16.6359 15.5121 16.1773C15.9707 15.7187 16.5927 15.4611 17.2412 15.4611C17.8898 15.4611 18.5118 15.7187 18.9704 16.1773C19.429 16.6359 19.6866 17.2579 19.6866 17.9064C19.6866 18.555 19.429 19.177 18.9704 19.6356C18.5118 20.0942 17.8898 20.3518 17.2412 20.3518ZM1.29992 3.1401C0.994695 3.13025 0.705261 3.00208 0.492828 2.78269C0.280396 2.56329 0.161621 2.26988 0.161621 1.96449C0.161621 1.6591 0.280396 1.36569 0.492828 1.14629C0.705261 0.926896 0.994695 0.798724 1.29992 0.788879L2.70723 0.788879C3.81009 0.788879 4.76378 1.55428 5.00343 2.63024L6.53545 9.52861C6.77509 10.6046 7.72878 11.37 8.83164 11.37H18.0164L19.7795 4.31509H8.35357C8.05122 4.3013 7.76582 4.17148 7.55673 3.95263C7.34765 3.73379 7.23097 3.44277 7.23097 3.1401C7.23097 2.83743 7.34765 2.54641 7.55673 2.32756C7.76582 2.10872 8.05122 1.9789 8.35357 1.9651H19.7795C20.137 1.96499 20.4897 2.04638 20.811 2.20308C21.1322 2.35977 21.4135 2.58764 21.6335 2.86938C21.8535 3.15111 22.0063 3.47928 22.0804 3.82895C22.1545 4.17862 22.1479 4.54058 22.0611 4.88731L20.298 11.9397C20.1709 12.4486 19.8772 12.9004 19.4638 13.2232C19.0504 13.546 18.5409 13.7213 18.0164 13.7212H8.83164C7.76155 13.7213 6.7234 13.3565 5.88866 12.6869C5.05393 12.0174 4.47252 11.0831 4.24047 10.0385L2.70723 3.1401H1.29992Z" fill="#181725"/>
</svg>
