<svg width="16" height="16" viewBox="0 0 16 16" fill="none" xmlns="http://www.w3.org/2000/svg">
<g clip-path="url(#clip0_2349_5977)">
<path d="M7.65067 10C7.47386 10 7.30429 10.0702 7.17926 10.1953C7.05424 10.3203 6.984 10.4899 6.984 10.6667V12.6667C6.984 13.1971 6.77329 13.7058 6.39821 14.0809C6.02314 14.456 5.51443 14.6667 4.984 14.6667H3.33333C2.8029 14.6667 2.29419 14.456 1.91912 14.0809C1.54405 13.7058 1.33333 13.1971 1.33333 12.6667V3.33333C1.33333 2.8029 1.54405 2.29419 1.91912 1.91912C2.29419 1.54405 2.8029 1.33333 3.33333 1.33333H4.984C5.51443 1.33333 6.02314 1.54405 6.39821 1.91912C6.77329 2.29419 6.984 2.8029 6.984 3.33333V5.33333C6.984 5.51014 7.05424 5.67971 7.17926 5.80474C7.30429 5.92976 7.47386 6 7.65067 6C7.82748 6 7.99705 5.92976 8.12207 5.80474C8.2471 5.67971 8.31733 5.51014 8.31733 5.33333V3.33333C8.31627 2.4496 7.96475 1.60237 7.33985 0.97748C6.71496 0.352588 5.86773 0.00105857 4.984 0H3.33333C2.4496 0.00105857 1.60237 0.352588 0.97748 0.97748C0.352588 1.60237 0.00105857 2.4496 0 3.33333L0 12.6667C0.00105857 13.5504 0.352588 14.3976 0.97748 15.0225C1.60237 15.6474 2.4496 15.9989 3.33333 16H4.984C5.86773 15.9989 6.71496 15.6474 7.33985 15.0225C7.96475 14.3976 8.31627 13.5504 8.31733 12.6667V10.6667C8.31733 10.4899 8.2471 10.3203 8.12207 10.1953C7.99705 10.0702 7.82748 10 7.65067 10Z" fill="#1E1E1E"/>
<path d="M15.2448 6.58611L12.1875 3.52878C12.126 3.46511 12.0524 3.41432 11.9711 3.37938C11.8898 3.34444 11.8023 3.32605 11.7138 3.32528C11.6252 3.32451 11.5375 3.34138 11.4555 3.3749C11.3736 3.40842 11.2992 3.45792 11.2366 3.52052C11.174 3.58311 11.1245 3.65755 11.0909 3.73948C11.0574 3.82141 11.0406 3.9092 11.0413 3.99772C11.0421 4.08624 11.0605 4.17372 11.0954 4.25505C11.1304 4.33639 11.1812 4.40995 11.2448 4.47145L14.0862 7.31345L4.00016 7.33345C3.82335 7.33345 3.65378 7.40369 3.52876 7.52871C3.40373 7.65374 3.3335 7.8233 3.3335 8.00012C3.3335 8.17693 3.40373 8.3465 3.52876 8.47152C3.65378 8.59654 3.82335 8.66678 4.00016 8.66678L14.1255 8.64612L11.2435 11.5288C11.1798 11.5903 11.129 11.6638 11.0941 11.7452C11.0592 11.8265 11.0408 11.914 11.04 12.0025C11.0392 12.091 11.0561 12.1788 11.0896 12.2608C11.1231 12.3427 11.1726 12.4171 11.2352 12.4797C11.2978 12.5423 11.3723 12.5918 11.4542 12.6253C11.5361 12.6589 11.6239 12.6757 11.7124 12.6749C11.801 12.6742 11.8884 12.6558 11.9698 12.6208C12.0511 12.5859 12.1247 12.5351 12.1862 12.4714L15.2435 9.41412C15.6186 9.03924 15.8295 8.53072 15.8297 8.00039C15.83 7.47006 15.6196 6.96135 15.2448 6.58611Z" fill="#1E1E1E"/>
</g>
<defs>
<clipPath id="clip0_2349_5977">
<rect width="16" height="16" fill="white"/>
</clipPath>
</defs>
</svg>
