<svg width="48" height="48" color="#53B175" viewBox="0 0 48 48" fill="none" xmlns="http://www.w3.org/2000/svg">
<path d="M12.5 39C9.29804 39 6.45004 36.95 5.41604 33.898L5.34604 33.668C5.10204 32.86 5.00004 32.18 5.00004 31.5V17.864L0.148043 34.06C-0.475957 36.442 0.946043 38.912 3.33204 39.57L34.258 47.852C34.644 47.952 35.03 48 35.41 48C37.402 48 39.222 46.678 39.732 44.73L41.534 39H12.5Z" fill="#53B175"/>
<path d="M18 18C20.206 18 22 16.206 22 14C22 11.794 20.206 10 18 10C15.794 10 14 11.794 14 14C14 16.206 15.794 18 18 18Z" fill="#53B175"/>
<path d="M43 4H13C10.244 4 8 6.244 8 9V31C8 33.756 10.244 36 13 36H43C45.756 36 48 33.756 48 31V9C48 6.244 45.756 4 43 4ZM13 8H43C43.552 8 44 8.448 44 9V23.198L37.682 15.826C37.012 15.04 36.042 14.62 35 14.596C33.964 14.602 32.992 15.062 32.328 15.858L24.9 24.774L22.48 22.36C21.112 20.992 18.886 20.992 17.52 22.36L12 27.878V9C12 8.448 12.448 8 13 8Z" fill="#53B175"/>
</svg>
