<svg xmlns="http://www.w3.org/2000/svg" viewBox="0 0 53 53"><path d="m49.855 16.458-9.15-3.46a1 1 0 0 0-.707 1.871l7.847 2.966-2.85 3.47-6.03-2.278a1 1 0 0 0-.707 1.871l4.22 1.594-15.98 6.043-15.985-6.044 4.233-1.603a1 1 0 0 0-.709-1.87L8 21.304l-2.842-3.468 7.847-2.967a1 1 0 0 0-.707-1.871l-9.15 3.46a1 1 0 0 0-.42 1.569l3.662 4.468-3.664 4.462a1 1 0 0 0 .419 1.57l2.298.87v12.52a1 1 0 0 0 .647.935l20.055 7.585c.008.003.018.001.027.004.105.037.215.06.326.06s.22-.023.326-.06c.01-.003.019-.001.028-.004l20.054-7.585a1 1 0 0 0 .647-.935v-12.52l2.299-.87a1 1 0 0 0 .419-1.57l-3.666-4.463 3.67-4.466a1 1 0 0 0-.42-1.57zM8.004 23.68l16.837 6.367-2.846 3.467-16.84-6.365 2.849-3.469zm-.56 6.472 14.514 5.488c.398.15.883 0 1.13-.301l2.41-2.938v15.653L7.443 41.226V30.152zm38.109 11.074-18.055 6.828V32.4l2.408 2.938c.26.317.761.441 1.132.301l14.515-5.488v11.074zM31 33.514l-2.846-3.467 16.837-6.367 2.849 3.469L31 33.514z"/><path d="M36.43 14.979c.416-.414.985-.98.985-1.782s-.57-1.37-.985-1.783c-.14-.139-.35-.349-.376-.368-.003-.104.104-.41.169-.592.203-.575.455-1.29.115-1.998-.345-.715-1.067-.966-1.649-1.167-.19-.066-.477-.166-.511-.175-.047-.093-.08-.397-.103-.599-.066-.609-.15-1.367-.766-1.86-.615-.491-1.37-.406-1.979-.338-.203.023-.51.058-.547.065-.079-.063-.238-.319-.344-.488-.31-.496-.732-1.175-1.511-1.353-.76-.174-1.399.23-1.911.554-.166.105-.444.28-.493.3-.103-.02-.38-.195-.546-.3-.513-.324-1.15-.727-1.913-.554-.778.178-1.2.857-1.51 1.353-.106.17-.265.425-.28.456-.1.025-.408-.01-.61-.033-.61-.07-1.365-.154-1.978.337-.619.494-.702 1.252-.768 1.862-.023.201-.056.506-.057.542-.079.064-.367.164-.557.23-.58.201-1.304.452-1.649 1.167-.34.708-.088 1.423.115 1.999.065.182.172.488.187.521-.043.09-.254.3-.394.44-.416.413-.985.979-.985 1.782s.57 1.368.985 1.782c.14.138.351.348.377.367.002.105-.105.41-.169.592-.203.575-.455 1.291-.113 1.998.345.714 1.068.964 1.648 1.165.19.066.477.165.511.173.046.093.08.397.102.598.067.61.15 1.368.768 1.86.615.492 1.369.404 1.979.337.202-.024.508-.058.545-.065.079.063.238.318.344.487.31.496.733 1.175 1.511 1.352.76.174 1.399-.23 1.912-.553.165-.105.442-.28.49-.3.104.02.38.195.547.3.427.27.942.595 1.542.595.119 0 .242-.013.367-.042.78-.176 1.203-.856 1.513-1.352.105-.169.264-.424.28-.455.098-.024.406.01.61.033.606.069 1.36.156 1.978-.336.617-.493.7-1.251.767-1.86.023-.202.056-.506.056-.541.08-.065.367-.165.558-.23.58-.201 1.303-.451 1.648-1.166.34-.707.089-1.422-.113-1.997a26.34 26.34 0 0 0-.186-.522c.043-.09.254-.3.394-.438zm-1.41-1.419c-.37.367-.788.782-.922 1.374-.137.604.062 1.17.237 1.669.047.132.11.31.144.441-.125.057-.31.12-.446.168-.496.171-1.058.366-1.442.845-.383.481-.448 1.074-.506 1.597-.016.142-.036.335-.064.469-.135-.003-.327-.025-.467-.041-.524-.061-1.118-.128-1.675.14-.549.265-.862.768-1.139 1.211-.072.116-.18.287-.264.4-.12-.062-.277-.161-.393-.234-.428-.27-.96-.607-1.586-.607s-1.158.336-1.586.606c-.117.074-.274.173-.393.235a6.138 6.138 0 0 1-.265-.4c-.276-.444-.59-.946-1.139-1.21a2.14 2.14 0 0 0-.95-.196c-.248 0-.493.028-.724.055-.14.016-.332.038-.467.04a5.915 5.915 0 0 1-.065-.47c-.057-.522-.123-1.115-.506-1.595-.382-.48-.945-.674-1.441-.846-.136-.047-.32-.11-.445-.167.033-.13.096-.31.142-.442.176-.499.375-1.064.238-1.669-.134-.591-.553-1.007-.921-1.373a5.25 5.25 0 0 1-.345-.364c.09-.111.243-.263.345-.364.369-.367.787-.783.921-1.375.137-.604-.063-1.17-.239-1.669a6.126 6.126 0 0 1-.143-.442c.126-.057.31-.121.446-.168.496-.172 1.059-.367 1.441-.847.383-.481.449-1.074.505-1.597.016-.143.037-.336.065-.47.135.003.327.025.467.04.525.059 1.117.128 1.676-.14.548-.266.862-.768 1.138-1.212a5.68 5.68 0 0 1 .266-.4c.118.061.276.16.392.234.428.27.961.607 1.587.607s1.16-.336 1.587-.607a6.07 6.07 0 0 1 .393-.234c.086.112.193.284.265.4.277.444.59.946 1.139 1.212.556.267 1.15.2 1.674.14.141-.015.333-.037.468-.04.028.134.05.327.065.469.057.524.122 1.118.506 1.599.382.479.944.674 1.44.846.136.047.321.112.446.168-.034.131-.097.31-.143.443-.176.499-.376 1.064-.24 1.67.135.59.553 1.006.923 1.374.101.1.254.252.344.364a5.25 5.25 0 0 1-.344.363z"/><path d="m29.325 10.144-4.242 4.242-1.414-1.414a1 1 0 1 0-1.414 1.414l1.668 1.668c.639.64 1.681.64 2.32 0l4.496-4.496a1 1 0 1 0-1.414-1.414z"/></svg>