<svg width="40" height="40" viewBox="0 0 40 40" fill="none" xmlns="http://www.w3.org/2000/svg">
<rect x="0.5" y="0.5" width="39" height="39" rx="19.5" fill="#FFC534"/>
<rect x="0.5" y="0.5" width="39" height="39" rx="19.5" stroke="#F6F6F6"/>
<g clip-path="url(#clip0_151_15316)">
<path d="M19.3378 13.7187L19.3331 24.0107C19.3331 24.1875 19.4034 24.357 19.5284 24.4821C19.6534 24.6071 19.823 24.6773 19.9998 24.6773C20.1766 24.6773 20.3462 24.6071 20.4712 24.4821C20.5962 24.357 20.6665 24.1875 20.6665 24.0107L20.6711 13.73L22.6125 15.672C22.7375 15.797 22.907 15.8672 23.0838 15.8672C23.2606 15.8672 23.4301 15.797 23.5551 15.672C23.6801 15.547 23.7503 15.3774 23.7503 15.2007C23.7503 15.0239 23.6801 14.8543 23.5551 14.7293L21.4145 12.586C21.2287 12.4001 21.0082 12.2527 20.7655 12.1521C20.5227 12.0515 20.2625 11.9998 19.9998 11.9998C19.737 11.9998 19.4769 12.0515 19.2341 12.1521C18.9914 12.2527 18.7709 12.4001 18.5851 12.586L16.4445 14.7273C16.3195 14.8523 16.2493 15.0219 16.2493 15.1987C16.2493 15.3754 16.3195 15.545 16.4445 15.67C16.5695 15.795 16.739 15.8652 16.9158 15.8652C17.0926 15.8652 17.2621 15.795 17.3871 15.67L19.3378 13.7187Z" fill="#1E1E1E"/>
<path d="M26.6667 23.3329V25.9996C26.6667 26.1764 26.5964 26.346 26.4714 26.471C26.3464 26.596 26.1768 26.6663 26 26.6663H14C13.8232 26.6663 13.6536 26.596 13.5286 26.471C13.4036 26.346 13.3333 26.1764 13.3333 25.9996V23.3329C13.3333 23.1561 13.2631 22.9865 13.1381 22.8615C13.013 22.7365 12.8435 22.6663 12.6667 22.6663C12.4899 22.6663 12.3203 22.7365 12.1953 22.8615C12.0702 22.9865 12 23.1561 12 23.3329V25.9996C12 26.53 12.2107 27.0387 12.5858 27.4138C12.9609 27.7889 13.4696 27.9996 14 27.9996H26C26.5304 27.9996 27.0391 27.7889 27.4142 27.4138C27.7893 27.0387 28 26.53 28 25.9996V23.3329C28 23.1561 27.9298 22.9865 27.8047 22.8615C27.6797 22.7365 27.5101 22.6663 27.3333 22.6663C27.1565 22.6663 26.987 22.7365 26.8619 22.8615C26.7369 22.9865 26.6667 23.1561 26.6667 23.3329Z" fill="#1E1E1E"/>
</g>
<defs>
<clipPath id="clip0_151_15316">
<rect width="16" height="16" fill="white" transform="translate(12 12)"/>
</clipPath>
</defs>
</svg>
